<svg width="5" height="9" viewBox="0 0 5 9" fill="none" xmlns="http://www.w3.org/2000/svg">
<path d="M0.663507 8.54502C0.848341 8.54502 0.995261 8.47867 1.12322 8.35545L4.75829 4.80569C4.91943 4.64455 4.99526 4.47867 5 4.27488C5 4.07109 4.92417 3.90047 4.75829 3.74408L1.12322 0.189573C0.995261 0.0663507 0.843602 0 0.663507 0C0.293839 0 0 0.293839 0 0.658768C0 0.838862 0.0758294 1.00948 0.208531 1.14218L3.43128 4.27488L0.208531 7.40284C0.0758294 7.53554 0 7.70616 0 7.88626C0 8.25118 0.293839 8.54502 0.663507 8.54502Z" fill="#2F385E"/>
</svg>
