<svg width="32" height="32" viewBox="0 0 32 32" fill="none" xmlns="http://www.w3.org/2000/svg">
<path d="M26.1818 3.64145V28.3585C26.1818 28.7658 26.5076 29.0909 26.9105 29.0909H28.3622C28.7665 29.0909 29.0909 28.7651 29.0909 28.3585V3.64145C29.0909 3.23418 28.7651 2.90909 28.3622 2.90909H26.9105C26.5062 2.90909 26.1818 3.23491 26.1818 3.64145ZM23.2727 3.64145C23.2722 3.1634 23.3658 2.68992 23.5484 2.24809C23.731 1.80627 23.9988 1.40477 24.3367 1.06656C24.6746 0.728357 25.0758 0.460076 25.5175 0.277065C25.9591 0.094054 26.4325 -9.58633e-05 26.9105 7.32439e-08H28.3622C28.8402 -1.65581e-07 29.3136 0.0942151 29.7552 0.27726C30.1968 0.460305 30.5979 0.72859 30.9358 1.06678C31.2736 1.40497 31.5415 1.80642 31.7241 2.2482C31.9067 2.68999 32.0005 3.16342 32 3.64145V28.3585C32.0006 28.8366 31.9069 29.3101 31.7243 29.7519C31.5418 30.1937 31.2739 30.5952 30.936 30.9334C30.5981 31.2716 30.1969 31.5399 29.7553 31.7229C29.3136 31.9059 28.8402 32.0001 28.3622 32H26.9105C26.4325 32 25.9592 31.9058 25.5176 31.7227C25.076 31.5397 24.6748 31.2714 24.3369 30.9332C23.9991 30.595 23.7312 30.1936 23.5486 29.7518C23.366 29.31 23.2722 28.8366 23.2727 28.3585V3.64145ZM7.3318e-08 12.3615C-9.58637e-05 11.8839 0.0939601 11.411 0.276788 10.9698C0.459616 10.5286 0.72763 10.1277 1.0655 9.7902C1.40337 9.45267 1.80446 9.18505 2.24585 9.00267C2.68723 8.82028 3.16024 8.7267 3.63782 8.72727H5.08945C6.05333 8.72785 6.97763 9.1107 7.6596 9.79186C8.34157 10.473 8.72554 11.3969 8.72727 12.3607V28.3665C8.72727 28.8441 8.63315 29.3169 8.45028 29.758C8.2674 30.1991 7.99938 30.5999 7.66152 30.9373C7.32366 31.2748 6.92259 31.5423 6.48126 31.7247C6.03992 31.907 5.56697 32.0006 5.08945 32H3.63782C2.67394 31.9994 1.74964 31.6166 1.06767 30.9354C0.385698 30.2543 0.00173315 29.3304 7.3318e-08 28.3665V12.3615ZM2.90909 12.3615V28.3665C2.90909 28.7622 3.23782 29.0909 3.63782 29.0909H5.08945C5.18495 29.0915 5.27961 29.0732 5.368 29.037C5.45638 29.0009 5.53675 28.9476 5.60448 28.8803C5.67221 28.813 5.72595 28.7329 5.76263 28.6448C5.7993 28.5566 5.81818 28.462 5.81818 28.3665V12.3607C5.81818 11.9651 5.48945 11.6364 5.08945 11.6364H3.63782C3.54233 11.6358 3.44766 11.6541 3.35928 11.6902C3.27089 11.7264 3.19052 11.7797 3.12279 11.847C3.05507 11.9143 3.00132 11.9943 2.96464 12.0825C2.92797 12.1707 2.90909 12.266 2.90909 12.3615ZM11.6364 21.0975C11.6357 20.6193 11.7293 20.1457 11.9118 19.7038C12.0943 19.2618 12.3622 18.8602 12.7001 18.5218C13.0379 18.1835 13.4392 17.9151 13.8809 17.7319C14.3226 17.5488 14.796 17.4545 15.2742 17.4545H16.7258C17.2041 17.4543 17.6778 17.5483 18.1196 17.7314C18.5615 17.9145 18.9629 18.183 19.3008 18.5215C19.6388 18.8599 19.9066 19.2618 20.089 19.7039C20.2714 20.1461 20.3647 20.6199 20.3636 21.0982V28.3564C20.3644 28.8346 20.2709 29.3083 20.0884 29.7503C19.9059 30.1923 19.6381 30.594 19.3002 30.9324C18.9623 31.2709 18.561 31.5393 18.1193 31.7225C17.6776 31.9057 17.204 32 16.7258 32H15.2742C14.7959 32.0003 14.3222 31.9062 13.8804 31.7231C13.4385 31.54 13.0371 31.2716 12.6992 30.9331C12.3612 30.5946 12.0934 30.1928 11.911 29.7506C11.7286 29.3085 11.6353 28.8347 11.6364 28.3564V21.0975ZM14.5455 21.0975V28.3571C14.5445 28.4533 14.5626 28.5487 14.5989 28.6379C14.6351 28.727 14.6886 28.8081 14.7564 28.8763C14.8242 28.9446 14.9049 28.9987 14.9938 29.0355C15.0827 29.0724 15.178 29.0912 15.2742 29.0909H16.7258C17.1295 29.0909 17.4545 28.7644 17.4545 28.3564V21.0982C17.4556 21.0019 17.4375 20.9064 17.4014 20.8172C17.3652 20.728 17.3116 20.6468 17.2438 20.5785C17.176 20.5101 17.0953 20.4559 17.0064 20.4191C16.9175 20.3822 16.8221 20.3633 16.7258 20.3636H15.2742C14.8705 20.3636 14.5455 20.6895 14.5455 21.0975Z" fill="url(#paint0_linear_1_4387)"/>
<defs>
<linearGradient id="paint0_linear_1_4387" x1="-7.53406e-08" y1="38.9333" x2="42.4237" y2="29.835" gradientUnits="userSpaceOnUse">
<stop stop-color="#0066FF"/>
<stop offset="1" stop-color="#2CE0C5"/>
</linearGradient>
</defs>
</svg>
