<svg width="36" height="36" viewBox="0 0 36 36" fill="none" xmlns="http://www.w3.org/2000/svg">
<path d="M35.9999 3.98158C35.9999 1.7861 34.2138 0 32.0183 0H9.68198C7.50606 0 5.71996 1.7701 5.7007 3.94366L5.51821 21.3322H1.4931C1.09227 21.3322 0.708005 21.4933 0.427171 21.7798C0.146329 22.066 -0.00742906 22.4532 0.000276252 22.854L0.124403 29.3487C0.132402 32.9078 3.03058 35.8007 6.58678 35.8007L29.5101 35.8756H29.5151C29.676 35.8756 29.8312 35.8501 29.9767 35.803C33.3436 35.5352 36 32.7463 36 29.357L35.9999 3.98158ZM6.59151 32.8143C4.67208 32.8143 3.11062 31.2528 3.11062 29.3334C3.11062 29.3239 3.11062 29.3145 3.11032 29.305L3.01493 24.3188H6.99386H6.99712H22.8893V29.3572C22.8893 30.652 23.2771 31.859 23.9439 32.8716L6.59151 32.8143ZM33.014 29.3565C33.014 31.2759 31.4128 32.8374 29.4449 32.8374C27.4769 32.8374 25.8759 31.2758 25.8759 29.3565V22.8251C25.8759 22.0006 25.2073 21.332 24.3828 21.332H8.50426L8.68645 3.97225C8.69119 3.42834 9.13764 2.98573 9.68185 2.98573L32.0189 2.98603C32.5679 2.98603 33.0143 3.43247 33.0143 3.98142L33.014 29.3565Z" fill="url(#paint0_linear_1_4410)"/>
<path d="M12 16L15.9791 11.7443C16.7696 10.8989 18.1104 10.8989 18.9009 11.7443L20.7391 13.7103C21.5296 14.5557 22.8704 14.5557 23.6609 13.7103L29 8M29 8V13.0909M29 8H24.24" stroke="url(#paint1_linear_1_4410)" stroke-width="2.5"/>
<defs>
<linearGradient id="paint0_linear_1_4410" x1="-8.47582e-08" y1="43.6487" x2="47.7121" y2="33.3807" gradientUnits="userSpaceOnUse">
<stop stop-color="#0066FF"/>
<stop offset="1" stop-color="#2CE0C5"/>
</linearGradient>
<linearGradient id="paint1_linear_1_4410" x1="12" y1="17.7333" x2="31.52" y2="8.83737" gradientUnits="userSpaceOnUse">
<stop stop-color="#0066FF"/>
<stop offset="1" stop-color="#2CE0C5"/>
</linearGradient>
</defs>
</svg>
