<svg width="26" height="37" viewBox="0 0 26 37" fill="none" xmlns="http://www.w3.org/2000/svg">
<path d="M19.5001 36.6374H6.49989C4.7761 36.6374 3.12279 35.9523 1.90392 34.7335C0.684621 33.5142 0 31.8609 0 30.1371V6.50032C0 4.77652 0.684653 3.12322 1.90392 1.90392C3.12279 0.685044 4.7761 0 6.49989 0H19.5001C21.2239 0 22.8772 0.685065 24.0961 1.90392C25.3154 3.12322 26 4.77652 26 6.50032V30.1371C26 31.8609 25.3153 33.5142 24.0961 34.7335C22.8772 35.9523 21.2239 36.6374 19.5001 36.6374ZM6.49989 3.54593C5.71631 3.54593 4.96488 3.85714 4.41089 4.41112C3.8569 4.96552 3.54529 5.71695 3.54529 6.50055V30.1373C3.54529 30.9209 3.8569 31.6723 4.41089 32.2267C4.96488 32.7807 5.71629 33.0919 6.49989 33.0919H19.5001C20.2837 33.0919 21.0351 32.7807 21.5891 32.2267C22.1431 31.6723 22.4547 30.9209 22.4547 30.1373V6.50055C22.4547 5.71697 22.1431 4.96553 21.5891 4.41112C21.0351 3.85714 20.2837 3.54593 19.5001 3.54593H6.49989Z" fill="url(#paint0_linear_1_4391)"/>
<path d="M14.8607 6.50054H11.1378C10.8089 6.50012 10.4866 6.40821 10.2067 6.23468C9.92724 6.06156 9.70136 5.81383 9.55421 5.51953L8.27191 2.95483H17.7268L16.4445 5.51953C16.2974 5.81384 16.0715 6.06156 15.792 6.23468C15.5122 6.40821 15.1898 6.50012 14.8609 6.50054H14.8607Z" fill="url(#paint1_linear_1_4391)"/>
<defs>
<linearGradient id="paint0_linear_1_4391" x1="-6.12143e-08" y1="44.5755" x2="35.2384" y2="39.2123" gradientUnits="userSpaceOnUse">
<stop stop-color="#0066FF"/>
<stop offset="1" stop-color="#2CE0C5"/>
</linearGradient>
<linearGradient id="paint1_linear_1_4391" x1="8.27191" y1="7.26877" x2="18.1519" y2="1.61854" gradientUnits="userSpaceOnUse">
<stop stop-color="#0066FF"/>
<stop offset="1" stop-color="#2CE0C5"/>
</linearGradient>
</defs>
</svg>
