<svg width="32" height="33" viewBox="0 0 32 33" fill="none" xmlns="http://www.w3.org/2000/svg">
<path fill-rule="evenodd" clip-rule="evenodd" d="M11.2001 1.60424C11.2001 0.718172 10.4838 6.81944e-06 9.60013 6.81944e-06C8.71644 6.81944e-06 7.99992 0.718172 7.99992 1.60424V2.41619C7.20654 2.42854 6.50148 2.45701 5.88035 2.52201C4.72937 2.64287 3.68576 2.90313 2.75764 3.54718C2.12441 3.98657 1.57559 4.53693 1.13734 5.17183C0.495009 6.10218 0.235476 7.14859 0.1152 8.30267C0.00966049 9.31628 0.000821329 10.5534 1.90328e-05 12.0325V12.2785V12.4479V21.7721C-0.000248879 23.9444 -0.000248831 25.7357 0.18993 27.1536C0.38949 28.6421 0.82476 29.9569 1.87448 31.0094C2.9242 32.0619 4.23543 32.4984 5.71988 32.6985C7.13391 32.8892 8.92056 32.8889 11.087 32.8889H20.9128C23.0795 32.8889 24.8661 32.8892 26.2801 32.6985C27.7646 32.4984 29.0758 32.0619 30.1255 31.0094C31.1752 29.9568 31.6105 28.6421 31.8101 27.1536C32.0003 25.7358 32 23.9444 32 21.7721V12.4479V12.3013V12.0324C31.9992 10.5533 31.9904 9.31628 31.8848 8.30266C31.7645 7.14858 31.505 6.10217 30.8627 5.17182C30.4245 4.5369 29.8754 3.98659 29.2424 3.54717C28.3143 2.90311 27.2707 2.64288 26.1197 2.52201C25.4985 2.45701 24.7935 2.42854 24.0001 2.41618V1.60423C24.0001 0.718165 23.2836 0 22.3999 0C21.5162 0 20.8 0.718165 20.8 1.60423V2.40649H11.1998L11.2001 1.60424ZM28.7998 12.0326C28.7988 10.5301 28.7886 9.46733 28.7021 8.63634C28.6089 7.74388 28.442 7.30335 28.2312 6.99773C28.0121 6.68053 27.7378 6.40524 27.4212 6.18557C27.1166 5.9742 26.677 5.80688 25.787 5.71341C25.2896 5.6613 24.7088 5.63686 24.0001 5.62532V6.41739C24.0001 7.30346 23.2835 8.0219 22.3998 8.0219C21.5162 8.0219 20.7999 7.30346 20.7999 6.41739V5.61542H11.1998V6.41739C11.1998 7.30346 10.4835 8.0219 9.59986 8.0219C8.71616 8.0219 7.99965 7.30346 7.99965 6.41739V5.62532C7.29089 5.63687 6.71015 5.66131 6.21272 5.71341C5.32265 5.80688 4.88304 5.9742 4.57851 6.18557C4.26189 6.40527 3.98761 6.68057 3.76853 6.99773C3.55772 7.30337 3.39058 7.74388 3.29763 8.63634C3.21111 9.46733 3.20093 10.5301 3.19986 12.0326H28.7998ZM3.19972 15.2413V21.6585C3.19972 23.9729 3.2032 25.5471 3.36124 26.7258C3.51312 27.8587 3.78098 28.3832 4.13694 28.7402C4.49319 29.0974 5.01631 29.366 6.14617 29.5183C7.32185 29.6767 8.89202 29.6802 11.1999 29.6802H20.8C23.1082 29.6802 24.6781 29.6767 25.8537 29.5183C26.9836 29.366 27.5067 29.0974 27.8627 28.7402C28.219 28.3833 28.4868 27.8587 28.6387 26.7258C28.7967 25.547 28.8002 23.9729 28.8002 21.6585V15.2413H3.19972Z" fill="url(#paint0_linear_1_4419)"/>
<defs>
<linearGradient id="paint0_linear_1_4419" x1="-7.53406e-08" y1="40.0148" x2="42.5234" y2="31.1416" gradientUnits="userSpaceOnUse">
<stop stop-color="#0066FF"/>
<stop offset="1" stop-color="#2CE0C5"/>
</linearGradient>
</defs>
</svg>
