<svg width="40" height="36" viewBox="0 0 40 36" fill="none" xmlns="http://www.w3.org/2000/svg">
<path d="M36.7321 0.000133954H14.6338C12.7921 0.000133954 11.2341 1.41657 11.2341 3.1165V7.64979C7.97577 10.7662 2.16809 17.2826 1.4598 17.9908C0.0433646 19.2658 -0.0985586 20.5408 0.0433658 20.8241V31.1651V31.3066V33.998C0.0433658 34.8482 0.751597 35.5564 1.60173 35.5564C2.45186 35.5564 3.16009 34.8481 3.16009 33.998V22.24C3.16009 21.1069 4.01026 20.3983 4.15171 20.2567L10.8096 12.6072C10.9511 12.4657 11.093 12.4657 11.3764 12.4657V20.8235L8.40157 23.3735C8.11818 23.7984 7.69334 24.79 8.40157 25.4983C9.1098 26.2065 10.1014 25.9231 10.3849 25.6397L17.6096 19.5485C17.751 19.4071 18.0344 19.2652 18.4598 19.2652C19.0265 19.2652 19.7348 19.69 20.3015 20.1153C21.0097 20.8236 21.0097 22.0986 20.3015 22.8068L9.25222 33.0063C9.25222 33.0063 8.96884 33.2897 8.82738 33.7145C8.68592 34.1394 8.68592 34.7062 9.11076 35.2729C9.39415 35.5563 9.81899 35.6978 10.1024 35.6978C10.5272 35.6978 10.9525 35.4144 11.2355 35.2729L11.9437 34.7061C12.5105 35.4144 13.5021 35.8392 14.4937 35.8392H36.5932C38.4349 35.8392 39.9929 34.4228 39.9929 32.7229L39.991 2.9748C40.1329 1.27452 38.5746 0 36.7327 0L36.7321 0.000133954ZM14.3497 32.0148L22.4241 24.5067C24.2659 22.5234 24.2659 19.4072 22.4241 17.5654C21.2911 16.4323 19.8746 15.8656 18.4577 15.8656C17.3246 15.8656 16.333 16.2904 15.6243 16.9986L14.2079 18.1317V4.10753C14.2079 3.11591 14.4913 2.83253 15.6243 2.83253H28.3731V32.4391H15.6243C14.9166 32.4396 14.4912 32.4396 14.3498 32.0148L14.3497 32.0148ZM37.1564 31.3066C37.1564 32.2982 36.873 32.5816 35.7399 32.5816H31.7735L31.773 2.83355H35.8809C37.014 2.83355 37.2973 3.11693 37.2973 4.10855L37.1564 31.3066Z" fill="url(#paint0_linear_1_4403)"/>
<defs>
<linearGradient id="paint0_linear_1_4403" x1="-9.41758e-08" y1="43.6044" x2="52.4629" y2="31.0467" gradientUnits="userSpaceOnUse">
<stop stop-color="#0066FF"/>
<stop offset="1" stop-color="#2CE0C5"/>
</linearGradient>
</defs>
</svg>
