<svg width="36" height="36" viewBox="0 0 36 36" fill="none" xmlns="http://www.w3.org/2000/svg">
<rect width="36" height="36" rx="10" fill="#E4E4E4"/>
<path d="M11.6145 18.1218C11.5541 19.1706 12.3615 20.0685 13.4103 20.1288C13.448 20.1288 13.4858 20.1288 13.5235 20.1288C14.5798 20.1288 15.4325 19.2762 15.4249 18.2198C15.4249 17.1635 14.5723 16.3109 13.5159 16.3184C12.5049 16.3184 11.6673 17.1107 11.6145 18.1218Z" fill="#0033AD"/>
<path d="M4.50696 17.6315C4.16741 17.6088 3.87315 17.8729 3.85805 18.2125C3.84296 18.552 4.09951 18.8463 4.43905 18.8614C4.77859 18.884 5.06531 18.6199 5.08795 18.2804C5.11059 17.9408 4.8465 17.6541 4.50696 17.6315Z" fill="#0033AD"/>
<path d="M11.4946 7.06063C11.7964 6.90973 11.9171 6.53246 11.7662 6.23064C11.6153 5.92883 11.238 5.8081 10.9362 5.95901C10.6344 6.10992 10.5137 6.47964 10.6646 6.78146C10.8155 7.09082 11.1852 7.21909 11.4946 7.06063C11.487 7.06063 11.4946 7.06063 11.4946 7.06063Z" fill="#0033AD"/>
<path d="M13.4244 10.4334C13.8922 10.1994 14.0808 9.626 13.8469 9.15818C13.613 8.69037 13.0396 8.50174 12.5718 8.73564C12.1039 8.96955 11.9153 9.543 12.1492 10.0108C12.3831 10.4786 12.9566 10.6673 13.4244 10.4334Z" fill="#0033AD"/>
<path d="M6.92088 12.7497C7.28306 12.9836 7.76597 12.8855 8.00742 12.5233C8.24132 12.1612 8.14323 11.6783 7.78106 11.4368C7.41888 11.2029 6.93598 11.301 6.69452 11.6632C6.45307 12.0253 6.55871 12.5158 6.92088 12.7497Z" fill="#0033AD"/>
<path d="M8.0774 17.2919C7.54923 17.2617 7.10405 17.6616 7.07387 18.1898C7.04369 18.718 7.44359 19.1631 7.97177 19.1933C8.49994 19.2235 8.94512 18.8236 8.9753 18.2954C9.00548 17.7748 8.60558 17.3221 8.0774 17.2919Z" fill="#0033AD"/>
<path d="M7.02517 23.683C6.64036 23.8791 6.48191 24.347 6.67808 24.7393C6.87426 25.1241 7.34208 25.2826 7.73444 25.0864C8.11925 24.8902 8.2777 24.4224 8.08152 24.0301C7.88534 23.6452 7.40999 23.4868 7.02517 23.683Z" fill="#0033AD"/>
<path d="M10.7232 15.3225C11.2439 15.6621 11.938 15.5187 12.27 14.9981C12.6096 14.4774 12.4662 13.7833 11.9456 13.4513C11.4249 13.1117 10.7308 13.2551 10.3988 13.7757C10.0592 14.2888 10.2026 14.983 10.7232 15.3225Z" fill="#0033AD"/>
<path d="M22.4578 10.3577C22.8954 10.6444 23.4915 10.5237 23.7783 10.0861C24.065 9.64844 23.9442 9.05235 23.5066 8.76563C23.069 8.47891 22.4729 8.59963 22.1862 9.03726C21.8919 9.48244 22.0126 10.071 22.4578 10.3577Z" fill="#0033AD"/>
<path d="M24.4041 7.00012C24.6908 7.18875 25.0681 7.10576 25.2567 6.81903C25.4454 6.53231 25.3624 6.15504 25.0756 5.96641C24.7889 5.77777 24.4117 5.86077 24.223 6.13995C24.0419 6.42667 24.1249 6.81149 24.4041 7.00012Z" fill="#0033AD"/>
<path d="M22.602 16.3035C21.5532 16.2431 20.6478 17.0505 20.595 18.0993C20.5346 19.1481 21.342 20.0535 22.3908 20.1063C22.4285 20.1063 22.4662 20.1063 22.4964 20.1063C23.5452 20.1063 24.3978 19.2537 24.3978 18.1974C24.4054 17.1938 23.6131 16.3563 22.602 16.3035Z" fill="#0033AD"/>
<path d="M14.0531 15.1869C14.3776 15.8283 15.034 16.2357 15.7584 16.2357C16.8072 16.2357 17.6598 15.3831 17.6598 14.3267C17.6598 14.0325 17.5919 13.7382 17.4561 13.4666C16.9807 12.5234 15.8338 12.1461 14.8982 12.6215C13.955 13.1044 13.5778 14.2513 14.0531 15.1869Z" fill="#0033AD"/>
<path d="M28.9848 12.7496C29.3696 12.5534 29.5205 12.0781 29.3243 11.6933C29.1281 11.3085 28.6528 11.1576 28.268 11.3537C27.8831 11.5499 27.7322 12.0177 27.9209 12.4025C28.1246 12.7874 28.5924 12.9458 28.9848 12.7496Z" fill="#0033AD"/>
<path d="M24.1549 13.3533C23.604 13.6324 23.3777 14.304 23.6569 14.8548C23.936 15.4056 24.6076 15.632 25.1584 15.3528C25.7092 15.0736 25.9356 14.4021 25.6564 13.8513C25.3772 13.3004 24.7057 13.0816 24.1549 13.3533Z" fill="#0033AD"/>
<path d="M17.93 6.71337C18.3601 6.73601 18.7298 6.40401 18.76 5.97393C18.7902 5.54384 18.4506 5.17412 18.0205 5.14394C17.5904 5.1213 17.2207 5.44575 17.1905 5.87584C17.1679 6.31347 17.4999 6.68319 17.93 6.71337Z" fill="#0033AD"/>
<path d="M17.923 11.6403C18.5417 11.678 19.0699 11.2027 19.1 10.584C19.1378 9.96524 18.6624 9.43707 18.0437 9.40688C17.425 9.36916 16.8968 9.84452 16.8666 10.4632C16.8364 11.082 17.3042 11.6101 17.923 11.6403Z" fill="#0033AD"/>
<path d="M11.8576 23.0792C12.4084 22.8001 12.6348 22.1285 12.3556 21.5777C12.0764 21.0269 11.4049 20.8005 10.8541 21.0797C10.3033 21.3589 10.0769 22.0304 10.3561 22.5812C10.6353 23.1321 11.3068 23.3584 11.8576 23.0792Z" fill="#0033AD"/>
<path d="M18.6466 13.2779C18.0732 14.1607 18.3146 15.3378 19.1974 15.9112C20.0802 16.4847 21.2573 16.2432 21.8308 15.3604C22.4042 14.4776 22.1627 13.3005 21.2799 12.7271C20.9706 12.5234 20.6084 12.4177 20.2387 12.4177C19.5973 12.4177 19.0012 12.7422 18.6466 13.2779Z" fill="#0033AD"/>
<path d="M21.96 21.2459C21.4846 20.3027 20.3377 19.9254 19.4021 20.4008C18.4589 20.8761 18.0817 22.023 18.557 22.9587C19.0324 23.9018 20.1793 24.2791 21.1149 23.8037C22.0505 23.3359 22.4353 22.2041 21.9675 21.2609C21.9675 21.2534 21.9675 21.2534 21.96 21.2459Z" fill="#0033AD"/>
<path d="M25.2854 21.11C24.7648 20.7704 24.0706 20.9138 23.7386 21.4344C23.3991 21.955 23.5424 22.6492 24.0631 22.9812C24.5837 23.3207 25.2779 23.1774 25.6099 22.6568C25.9494 22.1437 25.8061 21.4495 25.2854 21.11Z" fill="#0033AD"/>
<path d="M28.9382 18.2503C28.9684 17.7221 28.5685 17.2769 28.0403 17.2467C27.5121 17.2165 27.0669 17.6164 27.0368 18.1446C27.0066 18.6728 27.4065 19.118 27.9347 19.1482C28.4553 19.1783 28.908 18.7709 28.9382 18.2503Z" fill="#0033AD"/>
<path d="M31.5714 17.5712C31.2319 17.5485 30.9376 17.8126 30.9225 18.1522C30.9074 18.4917 31.164 18.786 31.5035 18.8011C31.843 18.8237 32.1298 18.5596 32.1524 18.2201C32.1675 17.8805 31.9109 17.5938 31.5714 17.5712Z" fill="#0033AD"/>
<path d="M29.0902 23.6829C28.728 23.449 28.2451 23.5471 28.0037 23.9093C27.7698 24.2714 27.8679 24.7543 28.2301 24.9958C28.5922 25.2297 29.0751 25.1316 29.3166 24.7694C29.558 24.4072 29.4524 23.9168 29.0902 23.6829Z" fill="#0033AD"/>
<path d="M11.5988 29.4327C11.3121 29.2441 10.9348 29.3271 10.7462 29.6063C10.5576 29.893 10.6406 30.2702 10.9197 30.4589C11.2065 30.6475 11.5837 30.5645 11.7724 30.2853C11.9685 30.0062 11.8855 29.6213 11.5988 29.4327Z" fill="#0033AD"/>
<path d="M24.5163 29.372C24.2145 29.523 24.0937 29.9002 24.2447 30.202C24.3956 30.5039 24.7728 30.6246 25.0746 30.4737C25.3765 30.3228 25.4972 29.953 25.3463 29.6512C25.1954 29.3419 24.8256 29.2136 24.5163 29.372C24.5238 29.372 24.5163 29.372 24.5163 29.372Z" fill="#0033AD"/>
<path d="M17.3651 23.1547C17.9385 22.2719 17.6971 21.0948 16.8143 20.5138C15.9314 19.9403 14.7544 20.1818 14.1734 21.0646C13.5924 21.9474 13.8414 23.1245 14.7242 23.7055C15.0335 23.9092 15.3957 24.0148 15.7654 24.0148C16.4144 24.0224 17.0104 23.6979 17.3651 23.1547Z" fill="#0033AD"/>
<path d="M13.5541 26.0747C13.1165 25.788 12.5204 25.9087 12.2336 26.3463C11.9469 26.784 12.0676 27.3801 12.5053 27.6668C12.9429 27.9535 13.539 27.8328 13.8257 27.3951C14.12 26.9575 13.9993 26.3614 13.5541 26.0747Z" fill="#0033AD"/>
<path d="M17.9979 29.7191C17.5678 29.6965 17.1981 30.0285 17.1679 30.4586C17.1377 30.8886 17.4772 31.2584 17.9073 31.2885C18.3374 31.3112 18.7071 30.9867 18.7373 30.5566C18.76 30.119 18.428 29.7493 17.9979 29.7191Z" fill="#0033AD"/>
<path d="M18.0034 24.7919C17.3847 24.7542 16.8565 25.2295 16.8263 25.8482C16.7886 26.467 17.2639 26.9951 17.8827 27.0253C18.5014 27.0555 19.0296 26.5877 19.0597 25.969C19.0975 25.3578 18.6221 24.8221 18.0034 24.7919Z" fill="#0033AD"/>
<path d="M22.5867 25.9995C22.1189 26.2409 21.9302 26.8144 22.1717 27.2822C22.4131 27.75 22.9866 27.9386 23.4544 27.6972C23.9222 27.4633 24.1108 26.8898 23.8769 26.422C23.6355 25.9542 23.062 25.758 22.5867 25.9995Z" fill="#0033AD"/>
</svg>
