<svg width="28" height="28" viewBox="0 0 28 28" fill="none" xmlns="http://www.w3.org/2000/svg">
<rect width="28" height="28" rx="10" fill="#44BD41"/>
<path d="M17.9461 10.0186C17.3348 8.46052 15.7895 8.32544 13.9879 8.68027L13.3551 6.45695L11.9932 6.85055L12.6094 9.01525C12.2513 9.11873 11.8874 9.2315 11.5258 9.34375L10.9059 7.16462L9.54465 7.55783L10.1767 9.78066C9.88353 9.87183 9.59551 9.96094 9.31321 10.0427L9.31107 10.0358L7.43245 10.5779L7.84414 12.0232C7.84414 12.0232 8.84446 11.7136 8.83298 11.7368C9.38468 11.5776 9.65479 11.844 9.78516 12.1035L10.5061 14.6363C10.5442 14.6255 10.5943 14.6127 10.6527 14.6041C10.6074 14.6173 10.5587 14.631 10.5089 14.6459L11.5184 18.1943C11.5432 18.3738 11.5195 18.6783 11.1342 18.7903C11.156 18.8006 10.1441 19.0761 10.1441 19.0761L10.3335 20.7705L12.1058 20.2584C12.4358 20.1635 12.7619 20.0753 13.081 19.9852L13.7216 22.2337L15.0821 21.8409L14.4489 19.616C14.8246 19.5158 15.187 19.4143 15.5398 19.312L16.1695 21.5268L17.5313 21.1332L16.893 18.8885C19.1455 18.0965 20.585 17.0603 20.1759 14.8662C19.847 13.0994 18.8141 12.567 17.4261 12.6324C18.102 12.0047 18.3953 11.1581 17.9461 10.0186ZM17.409 15.3772C17.888 17.0574 14.9379 17.7028 14.0151 17.9703L13.1676 14.9909C14.091 14.7244 16.9103 13.6244 17.409 15.3772ZM15.5793 11.3568C16.014 12.8857 13.5483 13.405 12.7795 13.6271L12.0106 10.925C12.7794 10.7028 15.1253 9.76219 15.5793 11.3568Z" fill="white"/>
</svg>
