<svg width="36" height="36" viewBox="0 0 36 36" fill="none" xmlns="http://www.w3.org/2000/svg">
<rect width="36" height="36" rx="10" fill="#F7931A"/>
<path d="M24.6858 14.1664C24.4451 12.028 22.5709 11.346 20.2154 11.1871L20.1694 8.21543L18.3471 8.25104L18.3919 11.1444C17.9129 11.1538 17.4233 11.1727 16.937 11.1918L16.8922 8.27926L15.0709 8.31461L15.1161 11.2855C14.7217 11.3012 14.3343 11.316 13.9565 11.3236L13.9562 11.3143L11.4427 11.3623L11.4731 13.2943C11.4731 13.2943 12.8184 13.2426 12.7964 13.2677C13.5345 13.2535 13.7813 13.6742 13.8569 14.0399L13.9094 17.4253C13.9603 17.4246 14.0268 17.4254 14.1022 17.4342C14.0415 17.4355 13.9765 17.4363 13.9097 17.4382L13.9825 22.1808C13.9537 22.412 13.8229 22.7823 13.3072 22.7932C13.3308 22.8133 11.9825 22.8187 11.9825 22.8187L11.6538 24.9859L14.0253 24.9397C14.4666 24.9317 14.9009 24.9307 15.3273 24.9251L15.3745 27.9306L17.1949 27.8955L17.1489 24.9217C17.6488 24.9223 18.1326 24.9168 18.6048 24.9072L18.6498 27.8673L20.4721 27.8317L20.4263 24.8315C23.4873 24.5974 25.6198 23.7896 25.8419 20.9287C26.0213 18.625 24.9157 17.6201 23.1702 17.2394C24.2185 16.6848 24.8645 15.731 24.6858 14.1664ZM22.2356 20.6425C22.2713 22.8885 18.3929 22.7084 17.1578 22.7335L17.0968 18.7514C18.3322 18.7276 22.1995 18.2998 22.2356 20.6425ZM21.3012 15.0407C21.3322 17.0841 18.0972 16.9085 17.0685 16.9286L17.0128 13.3169C18.0415 13.2968 21.268 12.9093 21.3012 15.0407Z" fill="white"/>
</svg>
