<svg width="28" height="28" viewBox="0 0 28 28" fill="none" xmlns="http://www.w3.org/2000/svg">
<rect width="28" height="28" rx="10" fill="#F7B91A"/>
<path d="M18.9144 11.3039C18.7273 9.64074 17.2695 9.11029 15.4375 8.98675L15.4017 6.67542L13.9844 6.70311L14.0193 8.95353C13.6467 8.96082 13.2659 8.97554 12.8876 8.99039L12.8528 6.72506L11.4362 6.75255L11.4714 9.06324C11.1646 9.07542 10.8633 9.08695 10.5695 9.09285L10.5692 9.08569L8.6143 9.12302L8.63791 10.6256C8.63791 10.6256 9.68426 10.5855 9.66716 10.6049C10.2413 10.5939 10.4332 10.9211 10.492 11.2056L10.5328 13.8387C10.5724 13.8381 10.6242 13.8387 10.6828 13.8456C10.6356 13.8465 10.585 13.8472 10.5331 13.8487L10.5897 17.5374C10.5673 17.7172 10.4655 18.0052 10.0644 18.0137C10.0828 18.0293 9.03411 18.0335 9.03411 18.0335L8.77846 19.7191L10.623 19.6832C10.9662 19.6769 11.304 19.6762 11.6356 19.6718L11.6724 22.0094L13.0882 21.9822L13.0524 19.6692C13.4413 19.6696 13.8175 19.6654 14.1848 19.6579L14.2198 21.9602L15.6372 21.9325L15.6015 19.599C17.9823 19.417 19.6409 18.7887 19.8137 16.5635C19.9532 14.7717 19.0933 13.9902 17.7357 13.694C18.551 13.2627 19.0535 12.5209 18.9144 11.3039ZM17.0087 16.3409C17.0365 18.0878 14.02 17.9477 13.0594 17.9673L13.0119 14.87C13.9728 14.8516 16.9807 14.5188 17.0087 16.3409ZM16.282 11.9839C16.3061 13.5733 13.79 13.4367 12.9899 13.4523L12.9466 10.6432C13.7467 10.6276 16.2562 10.3262 16.282 11.9839Z" fill="white"/>
</svg>
