<svg width="36" height="36" viewBox="0 0 36 36" fill="none" xmlns="http://www.w3.org/2000/svg">
<rect width="36" height="36" rx="10" fill="#F5F9FF"/>
<path d="M12.2617 25.9457V14.1576L13.7315 14.8694V25.9539L12.2617 25.9457ZM17.2793 28.5084V16.8138L18.7492 16.8382V28.5084H17.2793ZM8 23.8224V13.104L9.47827 12.4247V23.5092L8 23.8224ZM17.7344 18.1032L8.18162 13.6939L9.90064 12.9373L18.3722 16.826L17.7387 18.1032H17.7344ZM27.2609 14.3162L17.4272 9.00788L18.0143 7.71436L27.9799 13.0796L27.2651 14.3162H27.2609ZM18.0649 29.1429L8 23.8468L8.7138 22.6092L18.7048 27.8697L18.0649 29.1429ZM9.14461 14.1088L8 13.104L18.0143 7.73876L18.7133 9.00686L9.14461 14.1088ZM26.5291 23.7695V13.5718L27.9989 13.0837V23.7736L26.5291 23.7695ZM18.1093 23.8519L17.4335 22.595L26.9177 17.8683L27.5935 19.1262L18.1093 23.856V23.8519ZM17.7925 18.3076L17.159 17.0304L26.8733 12.5346L27.5069 13.8118L17.7925 18.3076ZM18.066 29.1389L17.4229 27.8647L27.0391 22.6509L28 23.7451L18.066 29.1348V29.1389Z" fill="url(#paint0_linear_1_4299)"/>
<defs>
<linearGradient id="paint0_linear_1_4299" x1="8" y1="33.7858" x2="34.6659" y2="28.4482" gradientUnits="userSpaceOnUse">
<stop stop-color="#0066FF"/>
<stop offset="1" stop-color="#2CE0C5"/>
</linearGradient>
</defs>
</svg>
