<svg width="24" height="26" viewBox="0 0 24 26" fill="none" xmlns="http://www.w3.org/2000/svg">
<path d="M5.11399 21.3473V7.54442L6.87778 8.37793V21.3568L5.11399 21.3473ZM11.1352 24.3479V10.6546L12.899 10.6832V24.3479H11.1352ZM0 18.861V6.31083L1.77393 5.51543V18.4943L0 18.861ZM11.6813 12.1644L0.21794 7.00145L2.28077 6.11555L12.4467 10.6689L11.6864 12.1644H11.6813ZM23.113 7.73017L11.3126 1.5146L12.0171 0L23.9759 6.28225L23.1181 7.73017H23.113ZM12.0779 25.0909L0 18.8896L0.856555 17.4405L12.8458 23.6001L12.0779 25.0909ZM1.37353 7.48726L0 6.31083L12.0171 0.0285773L12.8559 1.51341L1.37353 7.48726ZM22.2349 18.7991V6.85856L23.9987 6.28702V18.8039L22.2349 18.7991ZM12.1311 18.8956L11.3202 17.4238L22.7012 11.8894L23.5122 13.3623L12.1311 18.9003V18.8956ZM11.751 12.4038L10.9908 10.9082L22.648 5.64403L23.4083 7.13957L11.751 12.4038ZM12.0792 25.0861L11.3075 23.5942L22.8469 17.4893L24 18.7706L12.0792 25.0814V25.0861Z" fill="url(#paint0_linear_271_2318)"/>
<defs>
<linearGradient id="paint0_linear_271_2318" x1="1.71429" y1="26.8831" x2="25.5115" y2="25.6528" gradientUnits="userSpaceOnUse">
<stop stop-color="#0066FF"/>
<stop offset="1" stop-color="#2CE0C5"/>
</linearGradient>
</defs>
</svg>
