<svg width="28" height="28" viewBox="0 0 28 28" fill="none" xmlns="http://www.w3.org/2000/svg">
<rect width="28" height="28" rx="10" fill="#50AF95"/>
<path fill-rule="evenodd" clip-rule="evenodd" d="M15.2208 15.4506C15.1526 15.4562 14.8003 15.479 14.0145 15.479C13.3895 15.479 12.9457 15.4586 12.79 15.4506C10.3745 15.3353 8.57162 14.8788 8.57162 14.3322C8.57162 13.7857 10.3745 13.3298 12.79 13.2126V14.996C12.948 15.0083 13.4003 15.0373 14.0253 15.0373C14.7753 15.0373 15.1509 15.0034 15.2185 14.9966V13.2138C17.6289 13.3304 19.4278 13.7869 19.4278 14.3322C19.4278 14.8776 17.6294 15.334 15.2185 15.45L15.2208 15.4506ZM15.2208 13.0294V11.4336H18.5846V9H9.4262V11.4336H12.7894V13.0288C10.0558 13.1651 8 13.753 8 14.4575C8 15.1619 10.0558 15.7492 12.7894 15.8861V21H15.2202V15.8843C17.9476 15.748 20 15.1607 20 14.4568C20 13.753 17.9493 13.1657 15.2202 13.0288L15.2208 13.0294Z" fill="white"/>
</svg>
